<svg width="104" height="45" viewBox="0 0 104 45" fill="none" xmlns="http://www.w3.org/2000/svg">
<path d="M31.8438 31.2695C31.8281 31.3086 31.707 31.3828 31.4805 31.4922C31.2617 31.6094 30.9961 31.7305 30.6836 31.8555C30.3789 31.9883 30.0547 32.1016 29.7109 32.1953C29.375 32.2969 29.0781 32.3477 28.8203 32.3477C28.6484 32.3477 28.5078 32.3164 28.3984 32.2539C28.2969 32.1914 28.2461 32.0898 28.2461 31.9492C28.2461 31.9023 28.2539 31.8555 28.2695 31.8086C28.2852 31.7695 28.3047 31.707 28.3281 31.6211C28.625 30.5039 28.9297 29.3906 29.2422 28.2812C29.5547 27.1719 29.8594 26.0898 30.1562 25.0352C30.4531 23.9727 30.7344 22.9492 31 21.9648C31.2656 20.9727 31.4961 20.043 31.6914 19.1758C31.8867 18.3008 32.043 17.5 32.1602 16.7734C32.2773 16.0391 32.3359 15.3984 32.3359 14.8516C32.3359 13.1406 32.1914 11.5938 31.9023 10.2109C31.6211 8.82812 31.2188 7.60156 30.6953 6.53125C30.1797 5.45312 29.5586 4.52734 28.832 3.75391C28.1133 2.97266 27.3164 2.33203 26.4414 1.83203C25.5664 1.33203 24.6289 0.964844 23.6289 0.730469C22.6367 0.488281 21.6094 0.367188 20.5469 0.367188C19.2891 0.367188 18.0078 0.523438 16.7031 0.835938C15.3984 1.14844 14.1133 1.59766 12.8477 2.18359C11.5742 2.76953 10.3438 3.48438 9.15625 4.32812C7.96094 5.17188 6.85156 6.125 5.82812 7.1875C4.79688 8.24219 3.875 9.40234 3.0625 10.668C2.25 11.9258 1.58594 13.2656 1.07031 14.6875C0.914062 15.1094 0.789062 15.4023 0.695312 15.5664C0.59375 15.7227 0.511719 15.8008 0.449219 15.8008C0.378906 15.8008 0.328125 15.7188 0.296875 15.5547C0.265625 15.3828 0.25 15.2109 0.25 15.0391C0.25 14.9609 0.253906 14.8945 0.261719 14.8398C0.261719 14.7773 0.265625 14.7266 0.273438 14.6875C0.640625 13.1484 1.20312 11.7188 1.96094 10.3984C2.71875 9.07812 3.61719 7.875 4.65625 6.78906C5.69531 5.70313 6.85156 4.74219 8.125 3.90625C9.39844 3.0625 10.7344 2.35547 12.1328 1.78516C13.5312 1.21484 14.9688 0.78125 16.4453 0.484375C17.9219 0.1875 19.3828 0.0390625 20.8281 0.0390625C22.1094 0.0390625 23.3555 0.160156 24.5664 0.402344C25.7852 0.644531 26.9297 1.01172 28 1.50391C29.0781 1.99609 30.0664 2.62109 30.9648 3.37891C31.8633 4.13672 32.6367 5.03516 33.2852 6.07422C33.9336 7.10547 34.4375 8.28125 34.7969 9.60156C35.1641 10.9141 35.3477 12.375 35.3477 13.9844C35.3477 14.75 35.2852 15.6758 35.1602 16.7617C35.0352 17.8398 34.8398 19.0312 34.5742 20.3359C34.3086 21.6328 33.9688 23.0156 33.5547 24.4844C33.1406 25.9453 32.6484 27.4375 32.0781 28.9609L41.9922 12.9297C42.1797 12.6406 42.3906 12.3398 42.625 12.0273C42.8594 11.707 43.1055 11.4141 43.3633 11.1484C43.6289 10.875 43.8984 10.6523 44.1719 10.4805C44.4453 10.3008 44.7148 10.2109 44.9805 10.2109C45.2461 10.2109 45.4531 10.2344 45.6016 10.2812C45.75 10.3203 45.8594 10.3711 45.9297 10.4336C46.0078 10.4961 46.0547 10.5703 46.0703 10.6562C46.0938 10.7344 46.1055 10.8125 46.1055 10.8906L31.8438 31.2695ZM53.6519 27.1562C52.4409 27.8516 51.4136 28.457 50.5698 28.9727C49.7261 29.4805 49.0073 29.9023 48.4136 30.2383C47.8198 30.5664 47.3159 30.8125 46.9019 30.9766C46.4956 31.1328 46.1245 31.2109 45.7886 31.2109C45.4605 31.2109 45.1792 31.1719 44.9448 31.0938C44.7183 31.0156 44.5308 30.9102 44.3823 30.7773C44.2339 30.6445 44.1245 30.4844 44.0542 30.2969C43.9917 30.1094 43.9605 29.9062 43.9605 29.6875C43.9605 29.5234 43.9956 29.3555 44.0659 29.1836C44.1362 29.0117 44.2222 28.8359 44.3237 28.6562C44.4331 28.4766 44.5464 28.2891 44.6636 28.0938C44.7808 27.8906 44.8902 27.6758 44.9917 27.4492L46.773 23.4648L40.48 27.1562C40.3784 27.1953 40.3081 27.2148 40.2691 27.2148C40.1753 27.2148 40.0933 27.1836 40.023 27.1211C39.9448 27.0586 39.9058 26.9766 39.9058 26.875C39.9058 26.7812 39.9487 26.6758 40.0347 26.5586C40.1128 26.4414 40.2612 26.3164 40.48 26.1836L43.5152 24.4141C43.9136 24.1797 44.3159 23.9453 44.7222 23.7109C45.1284 23.4766 45.5073 23.2578 45.8589 23.0547C46.2183 22.8516 46.5386 22.6719 46.8198 22.5156C47.1089 22.3516 47.3316 22.2266 47.4878 22.1406H48.9995C49.0308 22.1641 49.0581 22.2031 49.0816 22.2578C49.105 22.3125 49.1167 22.3945 49.1167 22.5039C49.1167 22.707 49.0581 22.9961 48.9409 23.3711C48.8237 23.7383 48.6753 24.1523 48.4956 24.6133C48.3237 25.0742 48.1284 25.5586 47.9097 26.0664C47.6987 26.5664 47.4995 27.043 47.312 27.4961C47.1245 27.9414 46.9292 28.3867 46.7261 28.832C46.523 29.2773 46.3198 29.7344 46.1167 30.2031C46.3277 30.2031 46.6597 30.0977 47.1128 29.8867C47.5737 29.6758 48.1284 29.3906 48.7769 29.0312C49.4331 28.6641 50.1714 28.2383 50.9917 27.7539C51.8198 27.2617 52.7066 26.7383 53.6519 26.1836C53.6831 26.1523 53.7417 26.1367 53.8277 26.1367C53.9214 26.1367 54.0073 26.168 54.0855 26.2305C54.1714 26.293 54.2144 26.3789 54.2144 26.4883C54.2144 26.582 54.1714 26.6875 54.0855 26.8047C54.0073 26.9141 53.8628 27.0312 53.6519 27.1562ZM50.4175 18.0391C50.4644 18.0391 50.5503 18.043 50.6753 18.0508C50.8081 18.0508 50.9566 18.0586 51.1206 18.0742C51.2847 18.0898 51.4566 18.1172 51.6362 18.1562C51.8159 18.1875 51.98 18.2383 52.1284 18.3086C52.2769 18.3711 52.4019 18.4531 52.5034 18.5547C52.605 18.6562 52.6597 18.7812 52.6675 18.9297L50.9683 20.2188L50.1948 20.582C50.0542 20.582 49.9448 20.543 49.8667 20.4648C49.7886 20.3867 49.73 20.3047 49.6909 20.2188L50.4175 18.0391ZM63.003 22.5039C63.003 22.9648 62.9444 23.4336 62.8272 23.9102C62.7178 24.3789 62.5537 24.8672 62.335 25.375C62.1241 25.875 61.8623 26.4023 61.5498 26.957C61.2373 27.5117 60.8819 28.1055 60.4834 28.7383C61.3819 28.1914 62.1983 27.7031 62.9327 27.2734C63.6748 26.8359 64.3037 26.4727 64.8194 26.1836C64.8506 26.1602 64.8897 26.1484 64.9366 26.1484C65.0225 26.1484 65.1084 26.1875 65.1944 26.2656C65.2803 26.3359 65.3233 26.4258 65.3233 26.5352C65.3233 26.6289 65.2842 26.7305 65.2061 26.8398C65.1358 26.9414 65.0069 27.0469 64.8194 27.1562C64.5694 27.3047 64.2569 27.5 63.8819 27.7422C63.5069 27.9766 63.0811 28.25 62.6045 28.5625C62.1358 28.875 61.6241 29.2188 61.0694 29.5938C60.5225 29.9688 59.9522 30.3633 59.3584 30.7773C58.7647 31.6836 58.1202 32.5898 57.4248 33.4961C56.7373 34.4023 56.0303 35.2695 55.3037 36.0977C54.585 36.9336 53.8662 37.707 53.1475 38.418C52.4209 39.1367 51.7295 39.7578 51.0733 40.2812C50.4092 40.8125 49.792 41.2266 49.2217 41.5234C48.6514 41.8281 48.1631 41.9805 47.7569 41.9805C47.2647 41.9805 46.9092 41.9141 46.6905 41.7812C46.4717 41.6484 46.3623 41.457 46.3623 41.207C46.3623 40.9023 46.4991 40.5273 46.7725 40.082C47.0381 39.6445 47.4092 39.1562 47.8858 38.6172C48.3545 38.0859 48.9131 37.5156 49.5616 36.9062C50.2022 36.3047 50.8975 35.6797 51.6475 35.0312C52.3975 34.3906 53.1866 33.7383 54.0147 33.0742C54.8428 32.418 55.6748 31.7695 56.5108 31.1289C56.8702 30.5742 57.2256 29.9922 57.5772 29.3828C57.9287 28.7734 58.2842 28.1289 58.6436 27.4492L60.4366 23.4414L54.1319 27.1562C54.0772 27.1875 54.0186 27.2031 53.9561 27.2031C53.8623 27.2031 53.7764 27.1719 53.6983 27.1094C53.6123 27.0469 53.5694 26.9609 53.5694 26.8516C53.5694 26.7656 53.6123 26.6641 53.6983 26.5469C53.7764 26.4297 53.9209 26.3086 54.1319 26.1836C54.6709 25.8789 55.1866 25.582 55.6787 25.293C56.1709 24.9961 56.6514 24.7109 57.1202 24.4375L61.0928 22.1406C61.2256 22.0625 61.3936 22 61.5967 21.9531C61.7998 21.8984 61.9952 21.8711 62.1827 21.8711C62.4014 21.8711 62.5889 21.918 62.7452 22.0117C62.9014 22.1055 62.9873 22.2695 63.003 22.5039ZM48.0616 40.8672C48.2647 40.8672 48.5967 40.7461 49.0577 40.5039C49.5186 40.2617 50.0733 39.8555 50.7217 39.2852C51.3702 38.7227 52.0928 37.9805 52.8897 37.0586C53.6787 36.1367 54.5069 34.9961 55.3741 33.6367C54.6944 34.1289 54.0303 34.6172 53.3819 35.1016C52.7334 35.5938 52.1202 36.0703 51.542 36.5312C50.9561 36.9922 50.417 37.4297 49.9248 37.8438C49.4327 38.2656 49.0108 38.6484 48.6592 38.9922C48.2998 39.3438 48.0225 39.6523 47.8272 39.918C47.6241 40.1836 47.5225 40.3945 47.5225 40.5508C47.5225 40.7617 47.7022 40.8672 48.0616 40.8672ZM64.0694 18.0391C64.1162 18.0391 64.2022 18.043 64.3272 18.0508C64.46 18.0508 64.6084 18.0586 64.7725 18.0742C64.9366 18.0898 65.1084 18.1172 65.2881 18.1562C65.4678 18.1875 65.6319 18.2383 65.7803 18.3086C65.9287 18.3711 66.0537 18.4531 66.1553 18.5547C66.2569 18.6562 66.3116 18.7812 66.3194 18.9297L64.6202 20.2188L63.8467 20.582C63.7061 20.582 63.5967 20.543 63.5186 20.4648C63.4405 20.3867 63.3819 20.3047 63.3428 20.2188L64.0694 18.0391ZM65.2994 27.1562C65.2447 27.1875 65.1939 27.2031 65.147 27.2031C65.0689 27.2031 65.0103 27.1719 64.9712 27.1094C64.9322 27.0391 64.9127 26.9531 64.9127 26.8516C64.9127 26.7422 64.94 26.625 64.9947 26.5C65.0494 26.375 65.1509 26.2695 65.2994 26.1836L69.6353 23.6289C70.1744 23.3164 70.7486 23.0469 71.358 22.8203C71.9673 22.5938 72.5845 22.4102 73.2095 22.2695C73.8423 22.1211 74.4673 22.0156 75.0845 21.9531C75.7017 21.8828 76.2837 21.8477 76.8306 21.8477C77.1431 21.8477 77.4361 21.8711 77.7095 21.918C77.983 21.957 78.2173 22.0195 78.4127 22.1055C78.6158 22.1836 78.772 22.2812 78.8814 22.3984C78.9986 22.5156 79.0572 22.6484 79.0572 22.7969C79.0572 22.9062 79.0181 22.9844 78.94 23.0312C78.8619 23.0781 78.7681 23.1133 78.6587 23.1367C78.5572 23.1523 78.4478 23.1641 78.3306 23.1719C78.2212 23.1797 78.1353 23.1992 78.0728 23.2305C78.0259 23.3789 77.9517 23.6094 77.8502 23.9219C77.7486 24.2266 77.647 24.543 77.5455 24.8711C77.4439 25.1914 77.3502 25.4805 77.2642 25.7383C77.1861 25.9883 77.1431 26.1328 77.1353 26.1719C77.0337 26.5 76.8931 26.918 76.7134 27.4258C76.5416 27.9258 76.3502 28.5977 76.1392 29.4414C76.147 29.4414 76.233 29.3984 76.397 29.3125C76.5689 29.2188 76.7877 29.0977 77.0533 28.9492C77.3267 28.8008 77.6353 28.6289 77.9791 28.4336C78.3228 28.2383 78.6783 28.0391 79.0455 27.8359L81.8462 26.1836C81.9556 26.1211 82.0494 26.0898 82.1275 26.0898C82.2134 26.0898 82.2798 26.1211 82.3267 26.1836C82.3736 26.2383 82.397 26.3086 82.397 26.3945C82.397 26.5039 82.3541 26.6328 82.2681 26.7812C82.1822 26.9219 82.0416 27.0469 81.8462 27.1562L75.6119 30.8125C75.4556 30.9062 75.3111 30.9727 75.1783 31.0117C75.0455 31.0508 74.9244 31.0703 74.815 31.0703C74.6587 31.0703 74.5259 31.0352 74.4166 30.9648C74.3072 30.8945 74.2173 30.7969 74.147 30.6719C74.0767 30.5469 74.022 30.4062 73.983 30.25C73.9517 30.0859 73.9361 29.9141 73.9361 29.7344C73.9361 29.5391 73.9556 29.3438 73.9947 29.1484C74.0337 28.9531 74.0845 28.7656 74.147 28.5859C73.9205 29.0312 73.6548 29.418 73.3502 29.7461C73.0533 30.0742 72.733 30.3516 72.3892 30.5781C72.0533 30.7969 71.7056 30.9609 71.3462 31.0703C70.9869 31.1797 70.6353 31.2344 70.2916 31.2344C69.9478 31.2344 69.6236 31.1797 69.3189 31.0703C69.0142 30.9609 68.7447 30.8008 68.5103 30.5898C68.2837 30.3711 68.1041 30.1016 67.9712 29.7812C67.8384 29.4609 67.772 29.0898 67.772 28.668C67.772 28.418 67.7955 28.1406 67.8423 27.8359C67.897 27.5312 67.9673 27.2227 68.0533 26.9102C68.1392 26.5977 68.2369 26.293 68.3462 25.9961C68.4556 25.6914 68.5689 25.4141 68.6861 25.1641L65.2994 27.1562ZM75.9517 22.8438C75.3267 22.8438 74.7291 22.9492 74.1587 23.1602C73.5884 23.3711 73.0572 23.6484 72.565 23.9922C72.0806 24.3359 71.6392 24.7305 71.2408 25.1758C70.8502 25.6133 70.5142 26.0664 70.233 26.5352C69.9595 26.9961 69.7447 27.4531 69.5884 27.9062C69.44 28.3594 69.3658 28.7656 69.3658 29.125C69.3658 29.5234 69.4517 29.8477 69.6236 30.0977C69.8033 30.3398 70.0923 30.4609 70.4908 30.4609C70.7252 30.4609 70.9791 30.3906 71.2525 30.25C71.5337 30.1016 71.815 29.9102 72.0962 29.6758C72.3853 29.4336 72.6666 29.1641 72.94 28.8672C73.2212 28.5625 73.4791 28.2578 73.7134 27.9531C73.9478 27.6406 74.1509 27.3398 74.3228 27.0508C74.5025 26.7539 74.6314 26.4961 74.7095 26.2773L75.9517 22.8438ZM102.565 27.1562C102.127 27.4141 101.701 27.668 101.287 27.918C100.881 28.1602 100.471 28.418 100.057 28.6914C99.6427 28.9648 99.2169 29.2578 98.7794 29.5703C98.3497 29.8828 97.8966 30.2344 97.42 30.625C97.0294 31.6406 96.6036 32.6914 96.1427 33.7773C95.6895 34.8633 95.2091 35.9219 94.7012 36.9531C94.2012 37.9922 93.6778 38.9727 93.1309 39.8945C92.5841 40.8242 92.0216 41.6367 91.4434 42.332C90.8731 43.0273 90.2911 43.5781 89.6973 43.9844C89.1114 44.3984 88.5255 44.6055 87.9395 44.6055C87.6427 44.6055 87.3887 44.5703 87.1778 44.5C86.9669 44.4297 86.7911 44.3359 86.6505 44.2188C86.5098 44.1016 86.4044 43.9688 86.3341 43.8203C86.2716 43.6797 86.2403 43.5352 86.2403 43.3867C86.2403 43.1602 86.3067 42.8281 86.4395 42.3906C86.5723 41.9609 86.7872 41.4531 87.0841 40.8672C87.3809 40.2812 87.7637 39.625 88.2325 38.8984C88.7091 38.1719 89.2833 37.3945 89.9552 36.5664C90.627 35.7461 91.4044 34.8867 92.2872 33.9883C93.1778 33.0898 94.1895 32.1719 95.3223 31.2344C95.7755 30.1797 96.1622 29.293 96.4825 28.5742C96.8028 27.8555 97.0684 27.2578 97.2794 26.7812C97.4981 26.3047 97.67 25.9258 97.795 25.6445C97.92 25.3555 98.0177 25.1172 98.088 24.9297C97.7598 25.3516 97.3692 25.8086 96.9161 26.3008C96.463 26.793 95.963 27.2852 95.4161 27.7773C94.877 28.2695 94.2989 28.7422 93.6817 29.1953C93.0723 29.6484 92.4434 30.0508 91.795 30.4023C91.1466 30.7461 90.4864 31.0234 89.8145 31.2344C89.1505 31.4453 88.4942 31.5508 87.8458 31.5508C87.4708 31.5508 87.213 31.4492 87.0723 31.2461C86.9317 31.0508 86.8614 30.7852 86.8614 30.4492C86.8614 30.1445 86.9122 29.7852 87.0137 29.3711C87.1231 28.9492 87.2598 28.5039 87.4239 28.0352C87.588 27.5586 87.7716 27.0742 87.9747 26.582C88.1856 26.082 88.3927 25.6016 88.5958 25.1406C88.7989 24.6797 88.9864 24.2539 89.1583 23.8633C89.338 23.4727 89.4825 23.1445 89.5919 22.8789C89.2403 23.1055 88.795 23.3789 88.2559 23.6992C87.7247 24.0117 87.1387 24.3555 86.4981 24.7305C85.8575 25.0977 85.1778 25.4883 84.4591 25.9023C83.7481 26.3164 83.0372 26.7344 82.3262 27.1562C82.2169 27.2188 82.1192 27.25 82.0333 27.25C81.9395 27.25 81.8653 27.2227 81.8106 27.168C81.7481 27.1055 81.7169 27.0273 81.7169 26.9336C81.7169 26.8242 81.7637 26.707 81.8575 26.582C81.9434 26.4492 82.0997 26.3164 82.3262 26.1836C83.3497 25.582 84.2442 25.0547 85.0098 24.6016C85.7833 24.1406 86.4552 23.7422 87.0255 23.4062C87.5958 23.0703 88.0802 22.7891 88.4786 22.5625C88.877 22.3359 89.2169 22.1562 89.4981 22.0234C89.7794 21.8906 90.0137 21.7969 90.2012 21.7422C90.3887 21.6797 90.5606 21.6484 90.7169 21.6484C90.9512 21.6484 91.1427 21.6992 91.2911 21.8008C91.4395 21.8945 91.5567 22.0195 91.6427 22.1758C91.7364 22.3242 91.7989 22.4883 91.8302 22.668C91.8614 22.8398 91.877 23.0078 91.877 23.1719C91.877 23.5078 91.7911 23.8984 91.6192 24.3438C91.4552 24.7812 91.2481 25.2383 90.9981 25.7148C90.7481 26.1914 90.4786 26.6719 90.1895 27.1562C89.9005 27.6406 89.6309 28.0977 89.3809 28.5273C89.1309 28.957 88.92 29.3398 88.7481 29.6758C88.5841 30.0117 88.502 30.2695 88.502 30.4492C88.502 30.6289 88.5919 30.7188 88.7716 30.7188C89.0528 30.7188 89.4161 30.625 89.8614 30.4375C90.3145 30.2422 90.8145 29.9805 91.3614 29.6523C91.9083 29.3164 92.4864 28.9258 93.0958 28.4805C93.7052 28.0273 94.3106 27.543 94.9122 27.0273C95.5137 26.5117 96.0919 25.9766 96.6466 25.4219C97.2091 24.8672 97.7169 24.3125 98.17 23.7578C98.2012 23.7109 98.2208 23.6289 98.2286 23.5117C98.2442 23.3867 98.2755 23.2617 98.3223 23.1367C98.377 23.0039 98.4591 22.8906 98.5684 22.7969C98.6856 22.6953 98.8614 22.6445 99.0958 22.6445C99.2911 22.6445 99.4473 22.668 99.5645 22.7148C99.6817 22.7617 99.7677 22.8281 99.8223 22.9141C99.8848 22.9922 99.9239 23.0898 99.9395 23.207C99.9552 23.3164 99.963 23.4414 99.963 23.582C99.963 23.5664 99.9591 23.5586 99.9512 23.5586C99.9356 23.5586 99.877 23.7031 99.7755 23.9922C99.6739 24.2734 99.5372 24.668 99.3653 25.1758C99.2012 25.6758 98.9981 26.2695 98.7559 26.957C98.5216 27.6445 98.2559 28.3906 97.9591 29.1953C98.67 28.6797 99.4005 28.1758 100.15 27.6836C100.908 27.1836 101.713 26.6836 102.565 26.1836C102.611 26.1602 102.658 26.1484 102.705 26.1484C102.791 26.1484 102.869 26.1836 102.94 26.2539C103.018 26.3242 103.057 26.4141 103.057 26.5234C103.057 26.6172 103.018 26.7188 102.94 26.8281C102.869 26.9375 102.744 27.0469 102.565 27.1562ZM92.0528 35.6289C91.7872 35.9102 91.5098 36.2695 91.2208 36.707C90.9317 37.1445 90.6466 37.6133 90.3653 38.1133C90.0841 38.6211 89.8145 39.1367 89.5567 39.6602C89.2989 40.1914 89.0723 40.6875 88.877 41.1484C88.6895 41.6094 88.5372 42.0156 88.42 42.3672C88.3106 42.7266 88.2559 42.9844 88.2559 43.1406C88.2559 43.3203 88.3419 43.4102 88.5137 43.4102C88.7169 43.4102 88.9317 43.3125 89.1583 43.1172C89.3927 42.9297 89.6309 42.6719 89.8731 42.3438C90.1231 42.0234 90.377 41.6484 90.6348 41.2188C90.8927 40.7969 91.1505 40.3477 91.4083 39.8711C91.6661 39.3945 91.92 38.9062 92.17 38.4062C92.4278 37.9141 92.6739 37.4414 92.9083 36.9883C93.2052 36.2773 93.4786 35.6133 93.7286 34.9961C93.9864 34.3789 94.2325 33.7969 94.4669 33.25C93.7325 33.9375 92.9278 34.7305 92.0528 35.6289Z" fill="white"/>
</svg>
